<?xml version="1.0" standalone="no"?>
<!DOCTYPE svg PUBLIC "-//W3C//DTD SVG 20010904//EN"
 "http://www.w3.org/TR/2001/REC-SVG-20010904/DTD/svg10.dtd">
<svg version="1.0" xmlns="http://www.w3.org/2000/svg"
 width="1300.000000pt" height="1300.000000pt" viewBox="0 0 1300.000000 1300.000000"
 preserveAspectRatio="xMidYMid meet">

<g transform="translate(0.000000,1300.000000) scale(0.100000,-0.100000)"
fill="#000000" stroke="none">
<path d="M5316 10647 c-164 -247 -277 -613 -287 -932 -1 -33 -3 -40 -6 -21 -4
22 -7 26 -14 15 -7 -11 -9 -11 -9 -1 0 7 -13 32 -29 55 -15 23 -38 60 -50 82
-21 39 -46 83 -96 168 -37 63 -64 120 -60 127 2 4 -2 7 -10 7 -20 0 -115 -188
-159 -315 -53 -152 -77 -284 -83 -458 -19 -507 158 -919 571 -1329 193 -192
354 -320 781 -620 476 -334 718 -534 881 -727 38 -45 79 -92 90 -104 12 -13
20 -25 18 -28 -2 -3 -1 -4 3 -1 3 3 11 0 18 -5 7 -6 184 -10 456 -10 420 -1
444 0 441 17 -2 14 -1 15 6 5 5 -8 18 -12 28 -10 18 3 23 16 59 165 4 18 -10
32 -80 84 -47 35 -85 67 -85 72 0 4 4 6 9 2 5 -3 12 -1 16 5 3 5 11 10 16 10
6 0 8 -4 5 -8 -2 -4 22 -5 55 -2 32 3 60 2 61 -2 2 -4 9 -4 17 1 7 5 17 39 22
82 10 88 12 381 2 457 l-6 53 -53 -7 c-48 -6 -52 -5 -48 12 3 11 -4 29 -15 41
-12 12 -21 29 -21 38 0 8 -4 15 -8 15 -5 0 -20 21 -33 48 -13 26 -27 49 -31
50 -5 2 -8 10 -8 18 0 8 -18 42 -40 75 -22 33 -40 65 -40 70 0 5 -4 9 -9 9 -5
0 -14 14 -20 30 -5 17 -19 44 -31 59 -11 16 -20 34 -20 41 0 6 -6 18 -12 25
-26 29 -34 40 -36 50 -1 6 -9 18 -17 28 -8 9 -15 26 -15 37 0 11 -4 20 -9 20
-5 0 -20 23 -32 50 -12 28 -26 50 -31 50 -4 0 -8 7 -8 16 0 9 -6 22 -14 28 -7
6 -26 36 -42 66 -16 30 -32 57 -35 60 -4 3 -14 21 -22 40 -20 44 -47 88 -69
114 -10 11 -18 27 -18 36 0 9 -9 26 -20 38 -11 12 -20 24 -20 26 0 3 -16 31
-36 62 -20 31 -31 54 -25 50 7 -4 9 -1 5 8 -3 9 -9 15 -12 14 -21 -2 -32 4
-32 17 0 8 -5 15 -11 15 -5 0 -7 5 -3 12 5 8 2 9 -9 5 -10 -4 -16 -2 -14 5 2
11 -211 182 -488 393 -621 472 -885 724 -1023 977 -83 152 -121 312 -102 438
5 35 8 66 6 68 -2 2 -29 -35 -60 -81z"/>
<path d="M4910 7334 c-14 -2 -59 -9 -100 -15 -41 -6 -92 -15 -114 -20 l-38
-10 124 -127 c68 -70 178 -191 245 -269 109 -128 120 -138 119 -110 -1 18 -8
43 -15 57 l-13 25 21 -22 c12 -13 25 -23 29 -23 4 0 34 -25 67 -56 38 -35 61
-50 64 -42 2 7 11 19 20 26 14 12 14 13 -2 8 -17 -5 -17 10 -15 283 l3 289
-59 6 c-61 6 -292 6 -336 0z"/>
<path d="M5710 7270 c0 -5 4 -10 10 -10 5 0 7 -6 5 -12 -3 -8 41 -36 121 -75
70 -34 122 -58 118 -53 -18 15 -190 127 -221 144 -18 9 -33 12 -33 6z"/>
<path d="M7795 6540 c-3 -6 1 -7 9 -4 18 7 21 14 7 14 -6 0 -13 -4 -16 -10z"/>
<path d="M5636 5921 c-4 -5 -5 -15 -3 -23 2 -7 2 -10 0 -6 -2 3 -81 7 -175 8
-99 0 -177 5 -184 11 -8 7 -15 6 -20 -3 -4 -7 -4 -10 -1 -7 4 3 24 -10 45 -30
21 -20 152 -122 292 -227 140 -105 277 -210 304 -232 28 -23 52 -39 54 -37 8
8 -237 495 -249 495 -5 0 -8 4 -5 9 4 5 -7 15 -23 22 -16 7 -27 17 -25 21 3 4
3 8 0 8 -3 0 -7 -4 -10 -9z"/>
<path d="M3320 3862 c-67 -36 -70 -50 -70 -392 0 -285 1 -307 20 -337 38 -62
42 -63 435 -63 l355 0 0 45 0 45 -344 0 c-300 0 -347 2 -360 16 -14 13 -16 54
-16 298 0 261 1 284 18 299 17 15 56 17 360 17 l342 0 0 45 0 45 -353 0 c-322
0 -355 -2 -387 -18z"/>
<path d="M4255 3870 c-27 -11 -61 -49 -74 -83 -7 -18 -11 -135 -11 -312 0
-320 5 -348 65 -385 32 -20 45 -21 355 -18 l322 3 34 37 34 38 0 324 c0 441
34 406 -402 405 -167 0 -312 -4 -323 -9z m616 -90 c18 -10 19 -24 19 -303 0
-215 -3 -296 -12 -305 -9 -9 -89 -12 -299 -12 -286 0 -288 0 -303 22 -14 19
-16 65 -16 295 0 260 1 274 20 293 19 19 33 20 296 20 171 0 283 -4 295 -10z"/>
<path d="M5110 3475 l0 -405 45 0 45 0 2 349 3 349 179 -214 c99 -118 182
-214 186 -214 4 0 87 96 186 214 l179 214 3 -349 2 -349 45 0 45 0 0 405 0
405 -62 0 -63 0 -163 -195 c-90 -107 -167 -195 -172 -195 -5 0 -82 88 -172
195 l-163 195 -62 0 -63 0 0 -405z"/>
<path d="M6150 3475 l0 -405 45 0 45 0 0 150 0 150 310 0 c337 0 346 1 389 56
19 25 21 39 21 196 0 158 -2 172 -21 200 -40 56 -55 58 -439 58 l-350 0 0
-405z m701 305 c17 -10 19 -23 19 -155 0 -132 -2 -145 -19 -155 -12 -6 -124
-10 -295 -10 -342 0 -316 -14 -316 165 0 179 -26 165 316 165 171 0 283 -4
295 -10z"/>
<path d="M7133 3865 c-18 -8 -42 -29 -53 -47 -19 -31 -20 -50 -20 -390 l0
-358 45 0 45 0 0 145 0 145 315 0 315 0 0 -145 0 -145 45 0 45 0 0 353 c0 322
-2 355 -18 386 -37 69 -51 71 -387 71 -235 -1 -307 -4 -332 -15z m629 -92 c16
-14 18 -33 18 -165 l0 -148 -315 0 -315 0 0 149 c0 123 3 152 16 165 13 14 54
16 296 16 248 0 284 -2 300 -17z"/>
<path d="M8000 3475 l0 -405 45 0 45 0 2 348 3 348 293 -348 293 -348 64 0 65
0 0 405 0 405 -45 0 -45 0 -2 -352 -3 -352 -295 352 -295 352 -62 0 -63 0 0
-405z"/>
<path d="M8914 3846 c14 -19 98 -132 186 -251 l160 -218 0 -153 0 -154 45 0
45 0 0 148 0 148 190 257 190 258 -57 -3 -58 -3 -149 -190 c-81 -104 -151
-191 -155 -193 -3 -1 -75 86 -160 193 l-154 195 -55 0 -54 0 26 -34z"/>
</g>
</svg>
